<svg width="16" height="18" viewBox="0 0 16 18" fill="none" xmlns="http://www.w3.org/2000/svg">
<path d="M12.3496 7.5V5.82031H3.99023V7.5H12.3496ZM12.3496 10.8203V9.17969H3.99023V10.8203H12.3496ZM9.84961 14.1797V12.5H3.99023V14.1797H9.84961ZM8.75586 2.73438C8.59961 2.57812 8.4043 2.5 8.16992 2.5C7.93555 2.5 7.74023 2.57812 7.58398 2.73438C7.42773 2.89062 7.34961 3.08594 7.34961 3.32031C7.34961 3.55469 7.42773 3.76302 7.58398 3.94531C7.74023 4.10156 7.93555 4.17969 8.16992 4.17969C8.4043 4.17969 8.59961 4.10156 8.75586 3.94531C8.91211 3.76302 8.99023 3.55469 8.99023 3.32031C8.99023 3.08594 8.91211 2.89062 8.75586 2.73438ZM13.9902 2.5C14.4329 2.5 14.8236 2.66927 15.1621 3.00781C15.5007 3.34635 15.6699 3.73698 15.6699 4.17969V15.8203C15.6699 16.263 15.5007 16.6536 15.1621 16.9922C14.8236 17.3307 14.4329 17.5 13.9902 17.5H2.34961C1.9069 17.5 1.51628 17.3307 1.17773 16.9922C0.839193 16.6536 0.669922 16.263 0.669922 15.8203V4.17969C0.669922 3.73698 0.839193 3.34635 1.17773 3.00781C1.51628 2.66927 1.9069 2.5 2.34961 2.5H5.82617C6.00846 2.00521 6.30794 1.60156 6.72461 1.28906C7.14128 0.976562 7.62305 0.820312 8.16992 0.820312C8.7168 0.820312 9.19857 0.976562 9.61523 1.28906C10.0319 1.60156 10.3314 2.00521 10.5137 2.5H13.9902Z" fill="#6C757D"/>
</svg>
