<svg width="18" height="17" viewBox="0 0 18 17" fill="none" xmlns="http://www.w3.org/2000/svg">
<path d="M10.5391 4V2.32031H7.17969V4H10.5391ZM15.5391 4C16.0078 4 16.3984 4.16927 16.7109 4.50781C17.0234 4.82031 17.1797 5.21094 17.1797 5.67969V14.8203C17.1797 15.2891 17.0234 15.6927 16.7109 16.0312C16.3984 16.3438 16.0078 16.5 15.5391 16.5H2.17969C1.71094 16.5 1.32031 16.3438 1.00781 16.0312C0.695312 15.6927 0.539062 15.2891 0.539062 14.8203V5.67969C0.539062 5.21094 0.695312 4.82031 1.00781 4.50781C1.32031 4.16927 1.71094 4 2.17969 4H5.53906V2.32031C5.53906 1.85156 5.69531 1.46094 6.00781 1.14844C6.32031 0.835938 6.71094 0.679688 7.17969 0.679688H10.5391C11.0078 0.679688 11.3984 0.835938 11.7109 1.14844C12.0234 1.46094 12.1797 1.85156 12.1797 2.32031V4H15.5391Z" fill="#6C757D"/>
</svg>
