<svg width="20" height="12" viewBox="0 0 20 12" fill="none" xmlns="http://www.w3.org/2000/svg">
<path d="M13.4102 6.82031C14.1393 6.82031 14.9336 6.92448 15.793 7.13281C16.6523 7.34115 17.4466 7.67969 18.1758 8.14844C18.9049 8.61719 19.2695 9.15104 19.2695 9.75V11.8203H14.2695V9.75C14.2695 8.60417 13.7227 7.64062 12.6289 6.85938C12.8112 6.83333 13.0716 6.82031 13.4102 6.82031ZM4.38672 7.13281C5.24609 6.92448 6.04036 6.82031 6.76953 6.82031C7.4987 6.82031 8.29297 6.92448 9.15234 7.13281C10.0117 7.34115 10.793 7.67969 11.4961 8.14844C12.2253 8.61719 12.5898 9.15104 12.5898 9.75V11.8203H0.910156V9.75C0.910156 9.15104 1.27474 8.61719 2.00391 8.14844C2.73307 7.67969 3.52734 7.34115 4.38672 7.13281ZM8.48828 4.4375C8.01953 4.93229 7.44661 5.17969 6.76953 5.17969C6.09245 5.17969 5.50651 4.93229 5.01172 4.4375C4.51693 3.94271 4.26953 3.35677 4.26953 2.67969C4.26953 2.0026 4.51693 1.41667 5.01172 0.921875C5.50651 0.427083 6.09245 0.179688 6.76953 0.179688C7.44661 0.179688 8.01953 0.427083 8.48828 0.921875C8.98307 1.41667 9.23047 2.0026 9.23047 2.67969C9.23047 3.35677 8.98307 3.94271 8.48828 4.4375ZM15.168 4.4375C14.6732 4.93229 14.0872 5.17969 13.4102 5.17969C12.7331 5.17969 12.1471 4.93229 11.6523 4.4375C11.1576 3.94271 10.9102 3.35677 10.9102 2.67969C10.9102 2.0026 11.1576 1.41667 11.6523 0.921875C12.1471 0.427083 12.7331 0.179688 13.4102 0.179688C14.0872 0.179688 14.6732 0.427083 15.168 0.921875C15.6628 1.41667 15.9102 2.0026 15.9102 2.67969C15.9102 3.35677 15.6628 3.94271 15.168 4.4375Z" fill="#6C757D"/>
</svg>
