<svg width="16" height="16" viewBox="0 0 16 16" fill="none" xmlns="http://www.w3.org/2000/svg">
<path d="M3.77734 6.98438C5.02734 9.40625 6.86328 11.2422 9.28516 12.4922L11.1211 10.6562C11.3815 10.3958 11.668 10.3307 11.9805 10.4609C12.918 10.7734 13.9076 10.9297 14.9492 10.9297C15.1836 10.9297 15.3789 11.0078 15.5352 11.1641C15.6914 11.3203 15.7695 11.5156 15.7695 11.75V14.6797C15.7695 14.9141 15.6914 15.1094 15.5352 15.2656C15.3789 15.4219 15.1836 15.5 14.9492 15.5C11.043 15.5 7.69661 14.1198 4.91016 11.3594C2.14974 8.57292 0.769531 5.22656 0.769531 1.32031C0.769531 1.08594 0.847656 0.890625 1.00391 0.734375C1.16016 0.578125 1.35547 0.5 1.58984 0.5H4.51953C4.75391 0.5 4.94922 0.578125 5.10547 0.734375C5.26172 0.890625 5.33984 1.08594 5.33984 1.32031C5.33984 2.36198 5.49609 3.35156 5.80859 4.28906C5.91276 4.6276 5.84766 4.91406 5.61328 5.14844L3.77734 6.98438Z" fill="#6C757D"/>
</svg>
